<svg id="Group_1307" data-name="Group 1307" xmlns="http://www.w3.org/2000/svg" width="74.339" height="74.339" viewBox="0 0 74.339 74.339">
  <path id="Path_1893" data-name="Path 1893" d="M65.627,5.808H62.143V0H56.335V5.808H18V0H12.2V5.808H8.712A8.721,8.721,0,0,0,0,14.519V65.627a8.721,8.721,0,0,0,8.712,8.712H65.627a8.721,8.721,0,0,0,8.712-8.712V14.519A8.721,8.721,0,0,0,65.627,5.808ZM8.712,11.615H12.2v5.808H18V11.615H56.335v5.808h5.808V11.615h3.485a2.907,2.907,0,0,1,2.9,2.9v6.969H5.808V14.519A2.907,2.907,0,0,1,8.712,11.615ZM65.627,68.531H8.712a2.907,2.907,0,0,1-2.9-2.9V27.3H68.531V65.627A2.907,2.907,0,0,1,65.627,68.531Z" fill="#bf1e2d"/>
  <rect id="Rectangle_376" data-name="Rectangle 376" width="6" height="6" transform="translate(11 34)" fill="#bf1e2d"/>
  <rect id="Rectangle_377" data-name="Rectangle 377" width="6" height="6" transform="translate(23 34)" fill="#bf1e2d"/>
  <rect id="Rectangle_378" data-name="Rectangle 378" width="6" height="6" transform="translate(34 34)" fill="#bf1e2d"/>
  <rect id="Rectangle_379" data-name="Rectangle 379" width="5" height="6" transform="translate(46 34)" fill="#bf1e2d"/>
  <rect id="Rectangle_380" data-name="Rectangle 380" width="6" height="6" transform="translate(57 34)" fill="#bf1e2d"/>
  <rect id="Rectangle_381" data-name="Rectangle 381" width="6" height="5" transform="translate(11 46)" fill="#bf1e2d"/>
  <rect id="Rectangle_382" data-name="Rectangle 382" width="6" height="5" transform="translate(23 46)" fill="#bf1e2d"/>
  <rect id="Rectangle_383" data-name="Rectangle 383" width="6" height="5" transform="translate(34 46)" fill="#bf1e2d"/>
  <rect id="Rectangle_384" data-name="Rectangle 384" width="5" height="5" transform="translate(46 46)" fill="#bf1e2d"/>
  <rect id="Rectangle_385" data-name="Rectangle 385" width="6" height="6" transform="translate(11 57)" fill="#bf1e2d"/>
  <rect id="Rectangle_386" data-name="Rectangle 386" width="6" height="6" transform="translate(23 57)" fill="#bf1e2d"/>
  <rect id="Rectangle_387" data-name="Rectangle 387" width="6" height="6" transform="translate(34 57)" fill="#bf1e2d"/>
  <rect id="Rectangle_388" data-name="Rectangle 388" width="5" height="6" transform="translate(46 57)" fill="#bf1e2d"/>
  <rect id="Rectangle_389" data-name="Rectangle 389" width="6" height="5" transform="translate(57 46)" fill="#bf1e2d"/>
</svg>
