<?xml version="1.0" encoding="utf-8"?>
<!-- Generator: Adobe Illustrator 25.4.1, SVG Export Plug-In . SVG Version: 6.00 Build 0)  -->
<svg version="1.1" id="Layer_1" xmlns="http://www.w3.org/2000/svg" xmlns:xlink="http://www.w3.org/1999/xlink" x="0px" y="0px"
	 viewBox="0 0 365.7 365.7" style="enable-background:new 0 0 365.7 365.7;" xml:space="preserve">
<style type="text/css">
	.st0{fill:#FFFFFF;}
</style>
<circle cx="182.9" cy="168.7" r="143"/>
<path class="st0" d="M209.6,161.8l48.8-48.8c5.4-5.4,5.4-14.2,0-19.5l-6.5-6.5c-5.4-5.4-14.2-5.4-19.5,0l-48.8,48.8L134.8,87
	c-5.4-5.4-14.1-5.4-19.5,0l-6.5,6.5c-5.4,5.4-5.4,14.1,0,19.5l48.8,48.8l-49,48.8c-5.4,5.4-5.4,14.2,0,19.5l6.5,6.5
	c5.4,5.4,14.2,5.4,19.5,0l48.8-48.8l48.8,48.8c5.4,5.4,14.2,5.4,19.5,0l6.5-6.5c5.4-5.4,5.4-14.2,0-19.5L209.6,161.8z"/>
</svg>
