<svg width="18" height="18" viewBox="0 0 18 18" fill="none" xmlns="http://www.w3.org/2000/svg">
  <path d="M16.2 0.200012H1.79995C0.915951 0.200012 0.199951 0.916012 0.199951 1.80001V16.2C0.199951 17.084 0.915951 17.8 1.79995 17.8H16.2C17.084 17.8 17.7999 17.084 17.7999 16.2V1.80001C17.7999 0.916012 17.084 0.200012 16.2 0.200012ZM10.6 13H4.19995C3.75835 13 3.39995 12.6416 3.39995 12.2C3.39995 11.7584 3.75835 11.4 4.19995 11.4H10.6C11.0416 11.4 11.4 11.7584 11.4 12.2C11.4 12.6416 11.0416 13 10.6 13ZM13.8 9.80001H4.19995C3.75835 9.80001 3.39995 9.44161 3.39995 9.00001C3.39995 8.55841 3.75835 8.20001 4.19995 8.20001H13.8C14.2416 8.20001 14.6 8.55841 14.6 9.00001C14.6 9.44161 14.2416 9.80001 13.8 9.80001ZM13.8 6.60001H4.19995C3.75835 6.60001 3.39995 6.24161 3.39995 5.80001C3.39995 5.35841 3.75835 5.00001 4.19995 5.00001H13.8C14.2416 5.00001 14.6 5.35841 14.6 5.80001C14.6 6.24161 14.2416 6.60001 13.8 6.60001Z" fill="white" />
</svg>
