<svg id="Layer_1" data-name="Layer 1" xmlns="http://www.w3.org/2000/svg" viewBox="0 0 200 200"><defs><style>.cls-1{fill:#fff;}</style></defs><title>Artboard 1</title><polygon class="cls-1" points="89.88 130.54 33.24 130.54 33.24 46.81 139.13 46.81 139.13 83.75 134.2 83.75 134.2 51.74 38.17 51.74 38.17 125.61 89.88 125.61 89.88 130.54"/><path class="cls-1" d="M70.17,46.8V66.5h32V46.8ZM97.26,61.58H75.1V51.73H97.26Z"/><rect class="cls-1" x="43.09" y="115.76" width="4.93" height="4.93"/><rect class="cls-1" x="52.94" y="115.76" width="4.93" height="4.93"/><rect class="cls-1" x="62.79" y="115.76" width="4.93" height="4.93"/><path class="cls-1" d="M146.68,136.68a4,4,0,0,0-1.87,1.06,4.08,4.08,0,0,0-1.21,2.78l-4-3.79-1-.93-2-1.93,3.37-3.57,2.15,2,.76.72Z"/><path class="cls-1" d="M119.47,83.69A29.58,29.58,0,1,0,138.6,135.8a27.24,27.24,0,0,0,3.48-3.48,29.55,29.55,0,0,0-22.61-48.63Zm0,54.22a24.65,24.65,0,1,1,24.67-24.65A24.69,24.69,0,0,1,119.47,137.91Z"/><path class="cls-1" d="M165.3,144.41l-11-10.17a9.19,9.19,0,0,0-11.42-1.2,8.79,8.79,0,0,0-3.25,3.69,8.84,8.84,0,0,0-.94,4,9.14,9.14,0,0,0,2.76,6.53l11,10.17a9.22,9.22,0,0,0,6.48,2.66,9.13,9.13,0,0,0,6.38-15.67Zm-3.4,9.51a4.25,4.25,0,0,1-6,0L144.81,143.7a4.26,4.26,0,0,1-1.23-3,.71.71,0,0,1,0-.2,4.08,4.08,0,0,1,1.21-2.78,4,4,0,0,1,1.87-1.06,3.3,3.3,0,0,1,1.08-.17,4.33,4.33,0,0,1,3.08,1.28L161.9,148a4.26,4.26,0,0,1,1.23,3A4.19,4.19,0,0,1,161.9,153.92Z"/><rect class="cls-1" x="104.65" y="103.45" width="4.93" height="19.7"/><rect class="cls-1" x="112.04" y="103.45" width="4.93" height="19.7"/><rect class="cls-1" x="121.89" y="103.45" width="4.93" height="19.7"/><rect class="cls-1" x="129.28" y="103.45" width="4.93" height="19.7"/></svg>