<?xml version="1.0" encoding="utf-8"?>
<!-- Generator: Adobe Illustrator 25.4.1, SVG Export Plug-In . SVG Version: 6.00 Build 0)  -->
<svg version="1.1" id="Layer_1" xmlns="http://www.w3.org/2000/svg" xmlns:xlink="http://www.w3.org/1999/xlink" x="0px" y="0px"
	 viewBox="0 0 29.9 29.9" style="enable-background:new 0 0 29.9 29.9;" xml:space="preserve">
<style type="text/css">
	.st0{fill:#BF1E2D;}
</style>
<g id="Layer_2_00000049204879363917153990000013802923425021543055_">
	<g id="Layer_1-2">
		<g id="Group_843">
			<path id="Path_1176" class="st0" d="M11.5,10H2.2C1,10,0,9,0,7.8c0,0,0,0,0,0V2.2C0,1,1,0,2.2,0h9.4c1.2,0,2.2,1,2.2,2.2l0,0v5.6
				C13.7,9,12.8,10,11.5,10C11.6,10,11.5,10,11.5,10z M2.2,1.9C2,1.9,1.9,2,1.9,2.2c0,0,0,0,0,0l0,0v5.6C1.9,8,2,8.1,2.2,8.1h0h9.4
				c0.2,0,0.3-0.1,0.3-0.3c0,0,0,0,0,0l0,0V2.2c0-0.2-0.1-0.3-0.3-0.3c0,0,0,0,0,0C11.5,1.9,2.2,1.9,2.2,1.9z"/>
			<path id="Path_1177" class="st0" d="M11.5,29.9H2.2c-1.2,0-2.2-1-2.2-2.2l0,0V14.6c0-1.2,1-2.2,2.2-2.2h9.4c1.2,0,2.2,1,2.2,2.2
				l0,0v13.1C13.7,28.9,12.7,29.9,11.5,29.9C11.5,29.9,11.5,29.9,11.5,29.9z M2.2,14.3c-0.2,0-0.3,0.1-0.3,0.3l0,0l0,0v13.1
				C1.9,27.9,2,28,2.2,28c0,0,0,0,0,0h9.4c0.2,0,0.3-0.1,0.3-0.3c0,0,0,0,0,0l0,0V14.6c0-0.2-0.1-0.3-0.3-0.3h0L2.2,14.3L2.2,14.3z"
				/>
			<path id="Path_1178" class="st0" d="M27.7,29.9h-9.4c-1.2,0-2.2-1-2.2-2.2l0,0v-5.6c0-1.2,1-2.1,2.2-2.1h9.4c1.2,0,2.2,1,2.2,2.2
				l0,0v5.6C29.9,29,28.9,29.9,27.7,29.9z M18.4,21.8c-0.2,0-0.3,0.1-0.3,0.3l0,0v5.6c0,0.2,0.1,0.3,0.3,0.3c0,0,0,0,0,0h9.4
				c0.2,0,0.3-0.1,0.3-0.3c0,0,0,0,0,0l0,0v-5.6c0-0.2-0.1-0.3-0.3-0.3H18.4z"/>
			<path id="Path_1179" class="st0" d="M27.7,17.5h-9.4c-1.2,0-2.2-1-2.2-2.2c0,0,0,0,0,0V2.2c0-1.2,1-2.2,2.2-2.2c0,0,0,0,0,0h9.4
				c1.2,0,2.2,1,2.2,2.2v13.1C29.9,16.5,28.9,17.5,27.7,17.5L27.7,17.5z M18.4,1.9c-0.2,0-0.3,0.1-0.3,0.3l0,0v13.1
				c0,0.2,0.1,0.3,0.3,0.3h9.4c0.2,0,0.3-0.1,0.3-0.3l0,0V2.2c0-0.2-0.1-0.3-0.3-0.3C27.7,1.9,18.4,1.9,18.4,1.9z"/>
		</g>
	</g>
</g>
</svg>
