<svg xmlns="http://www.w3.org/2000/svg" viewBox="0 0 29.92 29.92"><defs><style>.cls-1{fill:#fff;}</style></defs><g id="Layer_2" data-name="Layer 2"><g id="Layer_1-2" data-name="Layer 1"><g id="Group_843" data-name="Group 843"><path id="Path_1176" data-name="Path 1176" class="cls-1" d="M11.53,10H2.18A2.18,2.18,0,0,1,0,7.79V2.18A2.19,2.19,0,0,1,2.18,0h9.35a2.18,2.18,0,0,1,2.18,2.18V7.79A2.17,2.17,0,0,1,11.53,10ZM2.18,1.87a.31.31,0,0,0-.31.32h0V7.8a.31.31,0,0,0,.31.31h9.35a.31.31,0,0,0,.31-.31h0V2.19a.31.31,0,0,0-.31-.32H2.18Z"/><path id="Path_1177" data-name="Path 1177" class="cls-1" d="M11.53,29.92H2.18A2.19,2.19,0,0,1,0,27.74H0V14.64a2.19,2.19,0,0,1,2.18-2.18h9.35a2.18,2.18,0,0,1,2.18,2.18V27.73a2.18,2.18,0,0,1-2.18,2.19ZM2.18,14.34a.31.31,0,0,0-.31.31h0V27.73a.31.31,0,0,0,.31.32h9.35a.31.31,0,0,0,.31-.32h0V14.64a.31.31,0,0,0-.31-.31H2.18Z"/><path id="Path_1178" data-name="Path 1178" class="cls-1" d="M27.74,29.92H18.39a2.18,2.18,0,0,1-2.18-2.18V22.13A2.17,2.17,0,0,1,18.39,20h9.35a2.18,2.18,0,0,1,2.18,2.18v5.61A2.19,2.19,0,0,1,27.74,29.92Zm-9.35-8.1a.31.31,0,0,0-.31.31h0v5.61a.31.31,0,0,0,.31.32h9.35a.31.31,0,0,0,.31-.32h0V22.13a.31.31,0,0,0-.31-.31H18.39Z"/><path id="Path_1179" data-name="Path 1179" class="cls-1" d="M27.74,17.45H18.39a2.17,2.17,0,0,1-2.18-2.18V2.18A2.18,2.18,0,0,1,18.39,0h9.35a2.19,2.19,0,0,1,2.18,2.18V15.27a2.18,2.18,0,0,1-2.18,2.18ZM18.39,1.87a.31.31,0,0,0-.31.31h0V15.27a.31.31,0,0,0,.31.31h9.35a.31.31,0,0,0,.31-.31h0V2.18a.31.31,0,0,0-.31-.31H18.39Z"/></g></g></g></svg>