<svg xmlns="http://www.w3.org/2000/svg" width="52.973" height="75.339" viewBox="0 0 52.973 75.339">
  <g id="Group_1306" data-name="Group 1306" transform="translate(-76)">
    <path id="Path_1894" data-name="Path 1894" d="M102.486,0A26.491,26.491,0,0,0,79.954,40.414L100.979,74.3a2.207,2.207,0,0,0,1.875,1.043h.018a2.207,2.207,0,0,0,1.876-1.073l20.489-34.21A26.492,26.492,0,0,0,102.486,0Zm18.962,37.79-18.628,31.1-19.115-30.8a22.087,22.087,0,1,1,37.743-.3Z" transform="translate(0)" fill="#bf1e2d"/>
    <path id="Path_1895" data-name="Path 1895" d="M179.243,90a13.243,13.243,0,1,0,13.243,13.243A13.258,13.258,0,0,0,179.243,90Zm0,22.1a8.858,8.858,0,1,1,8.844-8.858A8.865,8.865,0,0,1,179.243,112.1Z" transform="translate(-76.757 -76.757)" fill="#bf1e2d"/>
  </g>
</svg>
