<svg xmlns="http://www.w3.org/2000/svg" width="57.315" height="57.315" viewBox="0 0 57.315 57.315">
  <g id="Group_843" data-name="Group 843" transform="translate(-284 -284)">
    <path id="Path_1176" data-name="Path 1176" d="M306.09,303.105H288.179a4.184,4.184,0,0,1-4.179-4.18V288.179A4.184,4.184,0,0,1,288.179,284H306.09a4.184,4.184,0,0,1,4.18,4.179v10.747a4.184,4.184,0,0,1-4.18,4.18Zm-17.911-15.523a.6.6,0,0,0-.6.6v10.747a.6.6,0,0,0,.6.6H306.09a.6.6,0,0,0,.6-.6V288.179a.6.6,0,0,0-.6-.6Zm0,0" fill="#fff"/>
    <path id="Path_1177" data-name="Path 1177" d="M306.09,530.766H288.179A4.184,4.184,0,0,1,284,526.587V501.512a4.184,4.184,0,0,1,4.179-4.18H306.09a4.184,4.184,0,0,1,4.18,4.18v25.076a4.184,4.184,0,0,1-4.18,4.179Zm-17.911-29.852a.6.6,0,0,0-.6.6v25.076a.6.6,0,0,0,.6.6H306.09a.6.6,0,0,0,.6-.6V501.512a.6.6,0,0,0-.6-.6Zm0,0" transform="translate(0 -189.451)" fill="#fff"/>
    <path id="Path_1178" data-name="Path 1178" d="M583.423,644.437H565.512a4.184,4.184,0,0,1-4.18-4.179V629.512a4.184,4.184,0,0,1,4.18-4.179h17.911a4.184,4.184,0,0,1,4.179,4.179v10.747a4.184,4.184,0,0,1-4.179,4.179Zm-17.911-15.523a.6.6,0,0,0-.6.6v10.747a.6.6,0,0,0,.6.6h17.911a.6.6,0,0,0,.6-.6V629.512a.6.6,0,0,0-.6-.6Zm0,0" transform="translate(-246.286 -303.122)" fill="#fff"/>
    <path id="Path_1179" data-name="Path 1179" d="M583.423,317.434H565.512a4.184,4.184,0,0,1-4.18-4.18V288.179a4.184,4.184,0,0,1,4.18-4.179h17.911a4.184,4.184,0,0,1,4.179,4.179v25.075a4.184,4.184,0,0,1-4.179,4.18Zm-17.911-29.852a.6.6,0,0,0-.6.6v25.075a.6.6,0,0,0,.6.6h17.911a.6.6,0,0,0,.6-.6V288.179a.6.6,0,0,0-.6-.6Zm0,0" transform="translate(-246.286)" fill="#fff"/>
  </g>
</svg>
