<svg xmlns="http://www.w3.org/2000/svg" width="89.98" height="74.27" viewBox="0 0 89.98 74.27">
  <g id="Group_844" data-name="Group 844" transform="translate(-351 -384)">
    <path id="Path_1180" data-name="Path 1180" d="M417.414,384a5.719,5.719,0,0,0-5.713,5.713v.951c-6.1,6.456-14.352,10.877-20.285,13.473-7.287,3.189-13.992,4.857-16.85,4.857H357.427A6.434,6.434,0,0,0,351,415.422v11.426a6.434,6.434,0,0,0,6.427,6.427H361v15a2.143,2.143,0,0,0,2.142,2.143h7.141a2.142,2.142,0,0,0,2.078-1.623l3.848-15.389a62.913,62.913,0,0,1,15.209,4.731c5.933,2.6,14.186,7.017,20.285,13.473v.95a5.713,5.713,0,0,0,11.426,0V389.713A5.719,5.719,0,0,0,417.414,384Zm-44.99,44.99h-7.141V413.279h7.141Zm-17.139-2.143V415.422a2.144,2.144,0,0,1,2.142-2.142H361V428.99h-3.571a2.144,2.144,0,0,1-2.142-2.143Zm13.324,19.282h-3.326V433.275h6.54Zm8.1-16.974V413.114c7.53-1,23.734-6.581,34.992-16.507v49.056c-11.259-9.926-27.462-15.5-34.992-16.507Zm42.134,23.4a1.428,1.428,0,0,1-2.857,0V389.713a1.428,1.428,0,0,1,2.857,0Zm0,0" fill="#fff"/>
    <path id="Path_1181" data-name="Path 1181" d="M690.284,531h-7.141a2.142,2.142,0,1,0,0,4.285h7.141a2.142,2.142,0,0,0,0-4.285Zm0,0" transform="translate(-251.445 -112.007)" fill="#fff"/>
    <path id="Path_1182" data-name="Path 1182" d="M668.328,460.379a2.135,2.135,0,0,0,.927-.213l6.437-3.094a2.142,2.142,0,1,0-1.857-3.861l-6.436,3.095a2.142,2.142,0,0,0,.93,4.074Zm0,0" transform="translate(-240.157 -52.574)" fill="#fff"/>
    <path id="Path_1183" data-name="Path 1183" d="M675.735,599.326l-6.436-3.095a2.142,2.142,0,0,0-1.857,3.86l6.436,3.095a2.142,2.142,0,1,0,1.857-3.861Zm0,0" transform="translate(-240.2 -161.554)" fill="#fff"/>
  </g>
</svg>
