<svg xmlns="http://www.w3.org/2000/svg" width="82.104" height="73.765" viewBox="0 0 82.104 73.765">
  <g id="Group_1702" data-name="Group 1702" transform="translate(-348 -368)">
    <path id="Path_2325" data-name="Path 2325" d="M425.1,368H353a5,5,0,0,0-5,5v50.937a5,5,0,0,0,5,5h27.567l-.756,3.207h-3.587a1.6,1.6,0,0,0-1.556,1.214l-1.6,6.414a1.6,1.6,0,0,0,1.556,1.993h28.865a1.6,1.6,0,0,0,1.556-1.993l-1.6-6.414a1.6,1.6,0,0,0-1.556-1.214h-3.586l-.757-3.207H425.1a5,5,0,0,0,5-5V373a5,5,0,0,0-5-5ZM353,371.207h72.1A1.8,1.8,0,0,1,426.9,373v46.314H351.207V373A1.8,1.8,0,0,1,353,371.207Zm48.431,67.35H376.673l.8-3.207h23.154ZM395,432.143H383.105l.757-3.207h10.38Zm30.106-6.414H353a1.8,1.8,0,0,1-1.792-1.792v-1.415H426.9v1.415a1.8,1.8,0,0,1-1.792,1.792Zm0,0" transform="translate(0 0)" fill="#fff"/>
    <path id="Path_2326" data-name="Path 2326" d="M386.686,423.414a1.6,1.6,0,0,0,0,1.619c14.435,24.771,50.789,24.762,65.216,0a1.6,1.6,0,0,0,0-1.619c-14.435-24.771-50.789-24.762-65.216,0Zm3.258.809a34.005,34.005,0,0,1,4.3-5.542,25.549,25.549,0,0,0,0,11.083,33.957,33.957,0,0,1-4.3-5.542Zm58.7,0a33.974,33.974,0,0,1-4.3,5.542,25.55,25.55,0,0,0,0-11.083,34.006,34.006,0,0,1,4.3,5.542Zm-9.111-9.715a22.54,22.54,0,0,1,0,19.43,34.8,34.8,0,0,1-6.388,3.63,19.313,19.313,0,0,0,0-26.69,34.781,34.781,0,0,1,6.388,3.63Zm-34.115-3.619a19.236,19.236,0,0,0-3.759,5.626A1.6,1.6,0,0,0,404.6,417.8c7.143-15.771,30.492-10.905,30.733,6.422-.242,17.33-23.59,22.191-30.733,6.422a1.6,1.6,0,0,0-2.938,1.286,19.234,19.234,0,0,0,3.759,5.626,34.789,34.789,0,0,1-6.363-3.619,22.54,22.54,0,0,1,0-19.43,34.792,34.792,0,0,1,6.363-3.619Zm0,0" transform="translate(-30.242 -28.962)" fill="#fff"/>
    <path id="Path_2327" data-name="Path 2327" d="M493.073,461.157A12.844,12.844,0,0,0,505.9,448.329a1.6,1.6,0,0,0-1.6-1.6h-6.414a1.6,1.6,0,0,0-1.6,1.6,3.207,3.207,0,1,1-3.207-3.207,1.6,1.6,0,0,0,1.6-1.6V437.1a1.6,1.6,0,0,0-1.6-1.6c-17.021.7-17.012,24.956,0,25.657Zm0-6.414a6.426,6.426,0,0,0,6.211-4.811h3.276c-2.017,10.635-16.963,10.628-18.976,0h3.276a6.427,6.427,0,0,0,6.211,4.811Zm-1.6-15.9v3.276a6.438,6.438,0,0,0-4.608,4.608h-3.276a9.647,9.647,0,0,1,7.884-7.884Zm0,0" transform="translate(-104.021 -53.068)" fill="#fff"/>
    <path id="Path_2328" data-name="Path 2328" d="M559.56,445.529a1.6,1.6,0,0,0,1.591-2.785h0a1.6,1.6,0,0,0-1.59,2.785Zm0,0" transform="translate(-165.69 -58.597)" fill="#fff"/>
    <path id="Path_2329" data-name="Path 2329" d="M579.573,464.957a1.6,1.6,0,0,0,1.333-2.493h0a1.6,1.6,0,1,0-1.332,2.494Zm0,0" transform="translate(-180.798 -73.704)" fill="#fff"/>
    <path id="Path_2330" data-name="Path 2330" d="M451.633,491.207a1.6,1.6,0,0,0,0-3.207h0a1.6,1.6,0,0,0,0,3.207Zm0,0" transform="translate(-80.221 -94.343)" fill="#fff"/>
    <path id="Path_2331" data-name="Path 2331" d="M643.984,398.383a1.6,1.6,0,0,0,1.134-.47l.916-.916h1.35a4.811,4.811,0,1,0,0-3.207H645.37a1.606,1.606,0,0,0-1.134.47l-1.386,1.386a1.6,1.6,0,0,0,1.134,2.738Zm7.936-4.594a1.6,1.6,0,1,1-1.6,1.6,1.6,1.6,0,0,1,1.6-1.6Zm0,0" transform="translate(-231.439 -17.772)" fill="#fff"/>
    <path id="Path_2332" data-name="Path 2332" d="M375.311,400.2A4.82,4.82,0,0,0,379.847,397h1.35l.916.916a1.6,1.6,0,0,0,2.268-2.267L383,394.258a1.606,1.606,0,0,0-1.134-.469h-2.015a4.811,4.811,0,1,0-4.536,6.414Zm0-6.414a1.6,1.6,0,1,1-1.6,1.6,1.605,1.605,0,0,1,1.6-1.6Zm0,0" transform="translate(-17.689 -17.771)" fill="#fff"/>
    <path id="Path_2333" data-name="Path 2333" d="M651.92,555.5a4.819,4.819,0,0,0-4.536,3.207h-1.35l-.916-.917a1.6,1.6,0,0,0-2.268,2.268l1.386,1.386a1.606,1.606,0,0,0,1.134.47h2.015a4.811,4.811,0,1,0,4.536-6.414Zm0,6.413a1.6,1.6,0,1,1,1.6-1.6,1.6,1.6,0,0,1-1.6,1.6Zm0,0" transform="translate(-231.439 -147.41)" fill="#fff"/>
    <path id="Path_2334" data-name="Path 2334" d="M375.311,565.2a4.82,4.82,0,0,0,4.536-3.207h2.015a1.6,1.6,0,0,0,1.133-.469l1.386-1.385a1.6,1.6,0,0,0-2.268-2.268l-.916.916h-1.35a4.811,4.811,0,1,0-4.536,6.414Zm0-6.413a1.6,1.6,0,1,1-1.6,1.6,1.605,1.605,0,0,1,1.6-1.6Zm0,0" transform="translate(-17.689 -147.49)" fill="#fff"/>
  </g>
</svg>
