<svg xmlns="http://www.w3.org/2000/svg" width="82.453" height="72.123" viewBox="0 0 82.453 72.123">
  <g id="Group_849" data-name="Group 849" transform="translate(-348 -373)">
    <path id="Path_1184" data-name="Path 1184" d="M398.809,379.062a1.208,1.208,0,0,0,1.208-1.208v-3.647a1.208,1.208,0,0,0-2.416,0v3.647a1.208,1.208,0,0,0,1.208,1.208Zm-5.943.225a1.208,1.208,0,0,0,2.1-1.187l-1.532-2.715a1.208,1.208,0,0,0-2.1,1.187Zm10.241.458a1.211,1.211,0,0,0,1.646-.458l1.532-2.715a1.208,1.208,0,1,0-2.1-1.187l-1.532,2.715a1.207,1.207,0,0,0,.459,1.645Zm23.218,33.177-9.791-3.263a2.008,2.008,0,0,1-1.224-1.146l-5.456-13.274a6.017,6.017,0,0,0-5.586-3.743H404.2v-2.175a5.395,5.395,0,0,0-10.79,0V391.5H354.039A6.045,6.045,0,0,0,348,397.536v7.971a1.208,1.208,0,0,0,2.416,0v-7.971a3.627,3.627,0,0,1,3.623-3.623h29.954V420H350.416v-8.857a1.208,1.208,0,0,0-2.416,0v19a6.046,6.046,0,0,0,6.039,6.039h3.094a10.143,10.143,0,0,0,20.142,0h22.011a10.143,10.143,0,0,0,20.142,0h4.986a6.046,6.046,0,0,0,6.039-6.039v-11.5a6.031,6.031,0,0,0-4.129-5.73ZM367.2,442.707a7.73,7.73,0,1,1,7.73-7.73,7.738,7.738,0,0,1-7.73,7.73Zm16.789-8.937h-6.718a10.143,10.143,0,0,0-20.142,0h-3.094a3.627,3.627,0,0,1-3.623-3.623v-7.731h33.577Zm11.837-44.448a2.979,2.979,0,0,1,5.959,0V391.5h-5.959Zm13.527,53.385a7.73,7.73,0,1,1,7.73-7.73,7.738,7.738,0,0,1-7.73,7.73ZM428.038,420H409.615a1.208,1.208,0,1,0,0,2.416h18.422v7.731a3.627,3.627,0,0,1-3.623,3.623h-4.986a10.143,10.143,0,0,0-20.142,0H386.408V422.416h17.57a1.208,1.208,0,1,0,0-2.416h-17.57V393.913h17.858a3.609,3.609,0,0,1,3.352,2.245l5.456,13.275a4.424,4.424,0,0,0,2.7,2.519l9.792,3.263a3.619,3.619,0,0,1,2.477,3.437Zm-22.672-22.412a2.006,2.006,0,0,0-1.867-1.262H390.837a2.016,2.016,0,0,0-2.013,2.013v11.192a2.015,2.015,0,0,0,2.013,2.013H408a2.035,2.035,0,0,0,1.867-2.765ZM391.24,409.13V398.743h11.987l4.181,10.387Zm18.117,22.224a3.623,3.623,0,1,0,3.624,3.623,3.628,3.628,0,0,0-3.624-3.623Zm0,4.831a1.208,1.208,0,1,1,1.208-1.208,1.209,1.209,0,0,1-1.208,1.208Zm-40.7-39.858h-2.9a2.177,2.177,0,0,0-2.174,2.174v4.831h-4.831a2.177,2.177,0,0,0-2.174,2.174v2.9a2.177,2.177,0,0,0,2.174,2.174h4.831v4.831a2.177,2.177,0,0,0,2.174,2.174h2.9a2.177,2.177,0,0,0,2.174-2.174V410.58h4.831a2.177,2.177,0,0,0,2.174-2.174v-2.9a2.177,2.177,0,0,0-2.174-2.174h-4.831V398.5a2.177,2.177,0,0,0-2.174-2.174Zm6.764,9.421v2.416H370.1a1.693,1.693,0,0,0-1.691,1.691v5.315H366v-5.315a1.692,1.692,0,0,0-1.691-1.691h-5.314v-2.416h5.314A1.692,1.692,0,0,0,366,404.057v-5.314h2.416v5.314a1.693,1.693,0,0,0,1.691,1.691ZM367.2,431.354a3.623,3.623,0,1,0,3.623,3.623,3.628,3.628,0,0,0-3.623-3.623Zm0,4.831a1.208,1.208,0,1,1,1.208-1.208,1.209,1.209,0,0,1-1.208,1.208Zm0,0" transform="translate(0 0)" fill="#fff"/>
  </g>
</svg>
