<svg xmlns="http://www.w3.org/2000/svg" width="73.557" height="69.879" viewBox="0 0 73.557 69.879">
  <g id="Group_850" data-name="Group 850" transform="translate(-300 -312)">
    <path id="Path_1185" data-name="Path 1185" d="M349.226,544A1.226,1.226,0,0,0,348,545.226v19.615a1.226,1.226,0,1,0,2.452,0V545.226A1.226,1.226,0,0,0,349.226,544Zm0,0" transform="translate(-40.644 -196.448)" fill="#fff" opacity="0.5"/>
    <path id="Path_1186" data-name="Path 1186" d="M317.7,337.745a1.226,1.226,0,0,0,1.226-1.226,1.061,1.061,0,0,0-.074-.392,1.225,1.225,0,0,0-1.054-.858,6.13,6.13,0,0,1-5.541-5.64.461.461,0,0,0,0-.135v-.135a1.076,1.076,0,0,1,0-.2v-6.13h5.026a1.226,1.226,0,1,0,0-2.452h-6.253a1.226,1.226,0,0,0-1.226,1.226v5.468a7.355,7.355,0,0,1-2.452-5.468v-7.356h14.711A7.355,7.355,0,0,1,328.1,317.6a1.226,1.226,0,0,0,2.011-1.4A9.808,9.808,0,0,0,322.067,312H307.356a2.452,2.452,0,0,0-2.452,2.452v7.356a9.808,9.808,0,0,0,4.977,8.582,8.584,8.584,0,0,0,2.452,4.9h-3.751A8.581,8.581,0,0,0,300,343.875v24.519a1.226,1.226,0,0,0,2.452,0V343.875a6.13,6.13,0,0,1,6.13-6.13Zm0,0" transform="translate(0 0)" fill="#fff" opacity="0.5"/>
    <path id="Path_1187" data-name="Path 1187" d="M391.672,501.835l-.883-3.383h4a1.226,1.226,0,1,0,0-2.452H389.22a1.217,1.217,0,0,0-1.19,1.52l1.226,4.9a1.243,1.243,0,0,0,2.415-.589Zm0,0" transform="translate(-74.509 -155.803)" fill="#fff" opacity="0.5"/>
    <path id="Path_1188" data-name="Path 1188" d="M717.226,544A1.226,1.226,0,0,0,716,545.226v19.615a1.226,1.226,0,1,0,2.452,0V545.226A1.226,1.226,0,0,0,717.226,544Zm0,0" transform="translate(-352.251 -196.448)" fill="#fff" opacity="0.4"/>
    <path id="Path_1189" data-name="Path 1189" d="M613.054,336.127V324.259A12.259,12.259,0,0,0,600.794,312h-2.452a12.261,12.261,0,0,0-9.366,4.376,1.226,1.226,0,1,0,1.876,1.57,9.807,9.807,0,0,1,7.49-3.494h2.452a9.807,9.807,0,0,1,9.807,9.808v11.119a5,5,0,0,1-.846-.074h-4.168a8.58,8.58,0,0,0,2.562-6.142v-7.356a1.226,1.226,0,0,0-1.226-1.226H597.7a1.226,1.226,0,0,0,0,2.452H605.7v6.13a6.13,6.13,0,0,1-5.541,6.13,1.225,1.225,0,0,0-1.054.858,1.057,1.057,0,0,0-.074.392,1.226,1.226,0,0,0,1.226,1.226h3.359l-4.658,8.373a1.229,1.229,0,0,0,2.145,1.2l5.321-9.6h3.225a6,6,0,0,1,1.777.343h.1a6.131,6.131,0,0,1,3.984,5.787v24.519a1.226,1.226,0,0,0,2.452,0V343.875a8.582,8.582,0,0,0-4.9-7.748Zm0,0" transform="translate(-244.401 0)" fill="#fff" opacity="0.5"/>
    <path id="Path_1190" data-name="Path 1190" d="M442.649,394.971h-4.107a11.029,11.029,0,0,0,3.812-6.069,9.807,9.807,0,0,0,5.2-8.643v-2.452A9.807,9.807,0,0,0,437.745,368H418.13a2.452,2.452,0,0,0-2.452,2.452v9.808a9.807,9.807,0,0,0,5.2,8.643,11.029,11.029,0,0,0,3.813,6.069h-4.107A8.581,8.581,0,0,0,412,403.552v24.519a1.226,1.226,0,0,0,2.452,0V403.552a6.13,6.13,0,0,1,6.13-6.13h22.067a6.13,6.13,0,0,1,6.13,6.13v24.519a1.226,1.226,0,0,0,2.452,0V403.552a8.581,8.581,0,0,0-8.582-8.582ZM418.13,380.259v-9.808h19.615a7.356,7.356,0,0,1,7.356,7.356v2.452a7.355,7.355,0,0,1-2.452,5.468v-9.146a1.226,1.226,0,0,0-1.226-1.226H421.808a1.226,1.226,0,0,0-1.226,1.226v9.146a7.355,7.355,0,0,1-2.452-5.468Zm5.051,7.748a.462.462,0,0,0,0-.135,10.331,10.331,0,0,1-.147-1.3v-8.765H440.2v8.765a10.518,10.518,0,0,1-.135,1.3.423.423,0,0,0,0,.135,8.582,8.582,0,0,1-16.869,0Zm0,0" transform="translate(-94.837 -47.418)" fill="#fff"/>
    <path id="Path_1191" data-name="Path 1191" d="M516.851,575.745a1.226,1.226,0,0,0-1.484.9l-.992,4.009h-2.992l-.956-3.972a1.226,1.226,0,1,0-2.378.589l1.226,4.708-1.3,13.743a1.226,1.226,0,0,0,.417,1.03l3.678,3.212a1.227,1.227,0,0,0,1.619,0l3.678-3.212a1.225,1.225,0,0,0,.417-1.03l-1.226-13.743,1.226-4.708a1.226,1.226,0,0,0-.931-1.521Zm-3.972,21.662-2.452-2.047,1.079-12.259h2.648l1.177,12.259Zm0,0" transform="translate(-176.101 -223.288)" fill="#fff"/>
    <path id="Path_1192" data-name="Path 1192" d="M461.226,624A1.226,1.226,0,0,0,460,625.226v19.615a1.226,1.226,0,0,0,2.452,0V625.226A1.226,1.226,0,0,0,461.226,624Zm0,0" transform="translate(-135.481 -264.188)" fill="#fff"/>
    <path id="Path_1193" data-name="Path 1193" d="M605.226,624A1.226,1.226,0,0,0,604,625.226v19.615a1.226,1.226,0,0,0,2.452,0V625.226A1.226,1.226,0,0,0,605.226,624Zm0,0" transform="translate(-257.414 -264.188)" fill="#fff"/>
  </g>
</svg>
