<svg xmlns="http://www.w3.org/2000/svg" width="70" height="70" viewBox="0 0 70 70">
  <g id="Group_851" data-name="Group 851" transform="translate(-348 -348)">
    <path id="Path_1194" data-name="Path 1194" d="M385.2,418H380.8a6.452,6.452,0,0,1-6.444-6.444V410.07a28.251,28.251,0,0,1-4.388-1.821l-1.053,1.053a6.444,6.444,0,0,1-9.115,0l-3.105-3.1a6.444,6.444,0,0,1,0-9.115l1.052-1.052a28.234,28.234,0,0,1-1.821-4.389h-1.486A6.451,6.451,0,0,1,348,385.2V380.8a6.451,6.451,0,0,1,6.444-6.444h1.486a28.235,28.235,0,0,1,1.821-4.389l-1.053-1.053a6.444,6.444,0,0,1,0-9.115l3.105-3.1a6.442,6.442,0,0,1,9.114,0l1.052,1.052a28.235,28.235,0,0,1,4.389-1.821v-1.486A6.451,6.451,0,0,1,380.8,348H385.2a6.451,6.451,0,0,1,6.443,6.444v1.486a28.234,28.234,0,0,1,4.389,1.821l1.053-1.053a6.444,6.444,0,0,1,9.115,0l3.1,3.1a6.444,6.444,0,0,1,0,9.115l-1.052,1.052a28.229,28.229,0,0,1,1.821,4.389h1.486A6.451,6.451,0,0,1,418,380.8V385.2a6.451,6.451,0,0,1-6.444,6.443H410.07a28.229,28.229,0,0,1-1.821,4.389l1.053,1.053a6.444,6.444,0,0,1,0,9.115L406.2,409.3a6.443,6.443,0,0,1-9.114,0l-1.052-1.052a28.3,28.3,0,0,1-4.389,1.821v1.486A6.451,6.451,0,0,1,385.2,418Zm-14.54-14.059a24.191,24.191,0,0,0,6.266,2.6,2.052,2.052,0,0,1,1.539,1.986v3.028A2.345,2.345,0,0,0,380.8,413.9H385.2a2.346,2.346,0,0,0,2.343-2.343v-3.028a2.051,2.051,0,0,1,1.538-1.986,24.206,24.206,0,0,0,6.266-2.6,2.049,2.049,0,0,1,2.494.315l2.145,2.145a2.341,2.341,0,0,0,3.312,0l3.107-3.108a2.342,2.342,0,0,0,0-3.312l-2.146-2.145a2.052,2.052,0,0,1-.315-2.494,24.158,24.158,0,0,0,2.6-6.266,2.05,2.05,0,0,1,1.985-1.538h3.028A2.346,2.346,0,0,0,413.9,385.2V380.8a2.345,2.345,0,0,0-2.343-2.342h-3.028a2.051,2.051,0,0,1-1.985-1.538,24.162,24.162,0,0,0-2.6-6.266,2.05,2.05,0,0,1,.315-2.494l2.145-2.145a2.342,2.342,0,0,0,0-3.312L403.3,359.6a2.341,2.341,0,0,0-3.312,0l-2.146,2.146a2.051,2.051,0,0,1-2.494.315,24.183,24.183,0,0,0-6.266-2.6,2.05,2.05,0,0,1-1.538-1.986v-3.028A2.345,2.345,0,0,0,385.2,352.1H380.8a2.346,2.346,0,0,0-2.343,2.343v3.028a2.052,2.052,0,0,1-1.539,1.986,24.2,24.2,0,0,0-6.266,2.6,2.052,2.052,0,0,1-2.494-.315l-2.145-2.145a2.341,2.341,0,0,0-3.312,0l-3.107,3.107a2.342,2.342,0,0,0,0,3.312l2.146,2.145a2.052,2.052,0,0,1,.315,2.494,24.193,24.193,0,0,0-2.6,6.266,2.051,2.051,0,0,1-1.986,1.538h-3.028A2.346,2.346,0,0,0,352.1,380.8V385.2a2.345,2.345,0,0,0,2.343,2.342h3.028a2.052,2.052,0,0,1,1.986,1.539,24.194,24.194,0,0,0,2.6,6.266,2.052,2.052,0,0,1-.315,2.494l-2.146,2.145a2.342,2.342,0,0,0,0,3.312L362.7,406.4a2.342,2.342,0,0,0,3.313,0l2.145-2.146a2.06,2.06,0,0,1,2.494-.315Zm0,0" transform="translate(0 0)" fill="#fff"/>
    <path id="Path_1195" data-name="Path 1195" d="M471.68,486.91A15.231,15.231,0,1,1,486.91,471.68,15.248,15.248,0,0,1,471.68,486.91Zm0-26.36a11.129,11.129,0,1,0,11.129,11.129,11.142,11.142,0,0,0-11.129-11.129Zm0,0" transform="translate(-88.68 -88.68)" fill="#fff"/>
  </g>
</svg>
