<svg xmlns="http://www.w3.org/2000/svg" xmlns:xlink="http://www.w3.org/1999/xlink" viewBox="0 0 27.26 16.89"><defs><style>.cls-1{fill:none;}.cls-2{clip-path:url(#clip-path);}.cls-3{fill:#fff;}</style><clipPath id="clip-path" transform="translate(-0.03 -1.49)"><rect class="cls-1" width="27.16" height="19.85"/></clipPath></defs><g id="Layer_2" data-name="Layer 2"><g id="Layer_1-2" data-name="Layer 1"><g id="Group_842" data-name="Group 842"><g id="Group_841" data-name="Group 841"><g class="cls-2"><g id="Group_840" data-name="Group 840"><path id="Path_1173" data-name="Path 1173" class="cls-3" d="M26.19,11.07h-25a1.14,1.14,0,0,1,0-2.27H26.19A1.13,1.13,0,0,1,27.29,10a1.14,1.14,0,0,1-1.1,1.1Z" transform="translate(-0.03 -1.49)"/><path id="Path_1174" data-name="Path 1174" class="cls-3" d="M26.19,3.77h-25a1.14,1.14,0,0,1,0-2.28H26.19a1.14,1.14,0,0,1,0,2.28Z" transform="translate(-0.03 -1.49)"/></g></g></g><path id="Path_1175" data-name="Path 1175" class="cls-3" d="M26.19,18.38h-25a1.14,1.14,0,0,1,0-2.28H26.19a1.14,1.14,0,0,1,0,2.28Z" transform="translate(-0.03 -1.49)"/></g></g></g></svg>