<svg width="22" height="21" viewBox="0 0 22 21" fill="none" xmlns="http://www.w3.org/2000/svg">
  <path d="M11.0001 0.400024C5.2561 0.400024 0.600098 4.34002 0.600098 9.20002C0.600098 11.8944 2.03476 14.3028 4.28916 15.9172C4.34672 17.146 4.15632 18.8427 2.46104 19.625C2.45999 19.6255 2.45895 19.6261 2.45791 19.6266C2.38217 19.6554 2.31696 19.7065 2.27092 19.7732C2.22488 19.8399 2.20019 19.919 2.2001 20C2.2001 20.1061 2.24224 20.2079 2.31725 20.2829C2.39227 20.3579 2.49401 20.4 2.6001 20.4C2.61157 20.4 2.62304 20.3995 2.63447 20.3985C4.58169 20.386 6.23472 19.3337 7.3751 18.2219C7.7367 17.8691 8.2408 17.6955 8.7376 17.7891C9.4656 17.9275 10.2225 18 11.0001 18C16.7441 18 21.4001 14.06 21.4001 9.20002C21.4001 4.34002 16.7441 0.400024 11.0001 0.400024ZM11.0001 3.60002C12.7649 3.60002 14.2001 5.03522 14.2001 6.80002C14.2001 8.17202 13.3436 8.96322 12.6548 9.60002C12.1252 10.0888 11.8001 10.4096 11.8001 10.8H10.2001C10.2001 9.68882 10.9592 8.98746 11.5688 8.42346C12.208 7.83306 12.6001 7.43922 12.6001 6.80002C12.6001 5.91762 11.8825 5.20002 11.0001 5.20002C10.1177 5.20002 9.4001 5.91762 9.4001 6.80002H7.8001C7.8001 5.03522 9.2353 3.60002 11.0001 3.60002ZM11.0001 12.8C11.6625 12.8 12.2001 13.3376 12.2001 14C12.2001 14.6624 11.6625 15.2 11.0001 15.2C10.3377 15.2 9.8001 14.6624 9.8001 14C9.8001 13.3376 10.3377 12.8 11.0001 12.8Z" fill="#4B2321" />
</svg>
