<svg width="18" height="18" viewBox="0 0 18 18" fill="none" xmlns="http://www.w3.org/2000/svg">
  <path d="M2.75 0C1.24011 0 0 1.24011 0 2.75V15.25C0 16.7599 1.24011 18 2.75 18H15.25C16.7599 18 18 16.7599 18 15.25V2.75C18 1.24011 16.7599 0 15.25 0H2.75ZM2.75 1.5H15.25C15.9491 1.5 16.5 2.05089 16.5 2.75V15.25C16.5 15.9491 15.9491 16.5 15.25 16.5H2.75C2.05089 16.5 1.5 15.9491 1.5 15.25V2.75C1.5 2.05089 2.05089 1.5 2.75 1.5ZM3.75 3C3.65062 2.99859 3.55194 3.01696 3.45972 3.05402C3.36749 3.09108 3.28355 3.1461 3.21277 3.21588C3.142 3.28566 3.08579 3.36882 3.04743 3.46051C3.00907 3.5522 2.98932 3.65061 2.98932 3.75C2.98932 3.84939 3.00907 3.9478 3.04743 4.03949C3.08579 4.13118 3.142 4.21434 3.21277 4.28412C3.28355 4.3539 3.36749 4.40892 3.45972 4.44598C3.55194 4.48304 3.65062 4.50141 3.75 4.5C9.14367 4.5 13.5 8.85633 13.5 14.25C13.4986 14.3494 13.517 14.4481 13.554 14.5403C13.5911 14.6325 13.6461 14.7164 13.7159 14.7872C13.7857 14.858 13.8688 14.9142 13.9605 14.9526C14.0522 14.9909 14.1506 15.0107 14.25 15.0107C14.3494 15.0107 14.4478 14.9909 14.5395 14.9526C14.6312 14.9142 14.7143 14.858 14.7841 14.7872C14.8539 14.7164 14.9089 14.6325 14.946 14.5403C14.983 14.4481 15.0014 14.3494 15 14.25C15 8.04567 9.95433 3 3.75 3ZM3.75 7C3.65062 6.99859 3.55194 7.01696 3.45972 7.05402C3.36749 7.09108 3.28355 7.1461 3.21277 7.21588C3.142 7.28566 3.08579 7.36882 3.04743 7.46051C3.00907 7.5522 2.98932 7.65061 2.98932 7.75C2.98932 7.84939 3.00907 7.9478 3.04743 8.03949C3.08579 8.13118 3.142 8.21434 3.21277 8.28412C3.28355 8.3539 3.36749 8.40892 3.45972 8.44598C3.55194 8.48304 3.65062 8.50141 3.75 8.5C6.93471 8.5 9.5 11.0653 9.5 14.25C9.49859 14.3494 9.51696 14.4481 9.55402 14.5403C9.59108 14.6325 9.6461 14.7164 9.71588 14.7872C9.78566 14.858 9.86882 14.9142 9.96051 14.9526C10.0522 14.9909 10.1506 15.0107 10.25 15.0107C10.3494 15.0107 10.4478 14.9909 10.5395 14.9526C10.6312 14.9142 10.7143 14.858 10.7841 14.7872C10.8539 14.7164 10.9089 14.6325 10.946 14.5403C10.983 14.4481 11.0014 14.3494 11 14.25C11 10.2547 7.74529 7 3.75 7ZM5 11C4.46957 11 3.96086 11.2107 3.58579 11.5858C3.21071 11.9609 3 12.4696 3 13C3 13.5304 3.21071 14.0391 3.58579 14.4142C3.96086 14.7893 4.46957 15 5 15C5.53043 15 6.03914 14.7893 6.41421 14.4142C6.78929 14.0391 7 13.5304 7 13C7 12.4696 6.78929 11.9609 6.41421 11.5858C6.03914 11.2107 5.53043 11 5 11Z" fill="#4B2321" />
</svg>
