<svg width="20" height="20" viewBox="0 0 20 20" fill="none" xmlns="http://www.w3.org/2000/svg">
  <path d="M12.3999 13.2V11.6C12.7599 11.4216 13.7895 10.196 13.8975 9.23842C14.1807 9.21682 14.6255 8.95682 14.7567 7.93042C14.8271 7.37922 14.5471 7.06962 14.3775 6.97202C14.3775 6.97202 14.7999 6.16962 14.7999 5.20082C14.7999 3.25842 14.0375 1.60082 12.3999 1.60082C12.3999 1.60082 11.8311 0.400818 9.9999 0.400818C6.6063 0.400818 5.1999 2.57762 5.1999 5.20082C5.1999 6.08402 5.6223 6.97202 5.6223 6.97202C5.4527 7.06962 5.1727 7.38002 5.2431 7.93042C5.3743 8.95682 5.8191 9.21682 6.1023 9.23842C6.2103 10.196 7.2399 11.4216 7.5999 11.6V13.2C6.7999 15.6 0.399902 14 0.399902 19.6H19.5999C19.5999 14 13.1999 15.6 12.3999 13.2Z" fill="white" />
</svg>
